<?xml version="1.0" standalone="no"?>
<!DOCTYPE svg PUBLIC "-//W3C//DTD SVG 20010904//EN" "http://www.w3.org/TR/2001/REC-SVG-20010904/DTD/svg10.dtd">
<svg xmlns="http://www.w3.org/2000/svg" width="658" height="600" viewBox="0 0 658 600">
<title>Symmetric 9-crossing knot (triangular form, pseudo-Valknut).</title>
<g transform="translate(345,375) scale(1.15,-1.15)">
<path d="M16.1658,51.7639
L52.9116,-11.8818
H72.3436
L25.8818,68.5925
L16.1658,51.7639Z
M-74.8696,-105.914
H126.633
L88.5094,-39.8818
H69.0774
L94.9591,-84.7104
H-62.6276
L-74.8696,-105.914Z
M-240.339,-105.914
H-107.201
L-94.9593,-84.7104
H-203.539
L-70.4553,145.796
L-82.7349,167.065
L-240.339,-105.914Z
M-46.4618,-56.7104
H46.4617
L36.7457,-39.8818
H-36.7458
L-46.4618,-56.7104Z
M-155.041,-56.7104
H-78.7935
L-69.0776,-39.8818
H-120.841
L-42.0478,96.5928
L-54.2895,117.796
L-155.041,-56.7104Z
M-9.71614,96.5928
L-0.000155431,79.7642
L25.8818,124.592
L104.675,-11.8818
H129.158
L28.4075,162.625
L-9.71614,96.5928Z
M-38.1237,145.796
L-25.882,124.593
L28.4075,218.625
L161.49,-11.8818
H186.05
L28.4453,261.097
L-38.1237,145.796Z
M-20.58,-11.8818
H20.5799
L0,23.7638
L-20.58,-11.8818Z
M-103.315,-155.183
H211.893
L145.324,-39.8818
H120.841
L175.131,-133.914
H-91.0353
L-103.315,-155.183Z
M-288.837,-133.914
L-82.7349,223.065
L-54.2895,173.796
L28.4453,317.097
L234.548,-39.8818
H177.656
L260.391,-183.183
H-151.813
L-123.367,-133.914
H-288.837Z
M-72.3438,-11.8818
H-52.9118
L-16.166,51.7641
L-25.882,68.5927
L-72.3438,-11.8818Z"/>
<path fill="rgb(235,245,255)" d="M-273.681,-125.164
H-118.315
L-112.253,-114.664
H-255.495
L-82.7349,184.565
L-36.996,105.343
L-30.9338,115.843
L-82.7349,205.565
L-273.681,-125.164Z
M-85.9835,-125.164
H159.975
L25.8818,107.092
L5.05178,71.0139
L11.114,60.5139
L25.8818,86.0925
L141.789,-114.664
H-79.9214
L-85.9835,-125.164Z
M-136.657,-174.433
H245.235
L167.553,-39.8818
H155.428
L227.049,-163.933
H-118.471
L-72.7317,-84.7104
H-84.8561
L-136.657,-174.433Z
M-68.6902,-56.7104
H-56.5658
L-5.05191,32.5139
L-11.1141,43.0139
L-68.6902,-56.7104Z
M-49.2378,165.046
L-43.1756,154.546
L28.4453,278.597
L201.206,-20.6318
H109.727
L115.789,-31.1318
H219.392
L28.4453,299.597
L-49.2378,165.046Z
M-188.383,-75.9604
H79.8037
L58.9737,-39.8818
H46.8494
L61.6172,-65.4604
H-170.197
L-59.3415,126.546
L-65.4037,137.046
L-188.383,-75.9604Z
M-20.8301,77.3427
L30.6836,-11.8818
H42.8079
L-14.768,87.8427
L-20.8301,77.3427Z
M-31.694,-31.1318
H83.4576
L77.3954,-20.6318
H-25.6319
L-31.694,-31.1318Z
M-105.686,-31.1318
H-64.0258
L-57.9636,-20.6318
H-87.4992
L28.4075,180.125
L139.262,-11.8818
H151.387
L28.4075,201.125
L-105.686,-31.1318Z"/>
</g></svg>
